# xmcd
#
# Track frame offsets:
#	150
#	21102
#	37854
#	52361
#	66752
#	77867
#	91002
#	108320
#	126206
#	143578
#	166715
#	180393
#	200816
#	220761
#	239880
#	260560
#
# Disc length: 3680 seconds
#
# Revision: 1
# Processed by: cddbd v1.5.2PL0 Copyright (c) Steve Scherf et al.
# Submitted via: FairStars CD Ripper 1.90
#
DISCID=e00e5e10
DTITLE=Jed Madela - Songs Rediscovered 2 - The Ultimate OPM Playlist
DYEAR=2009
DGENRE=Ballad
TTITLE0=To Love Again
TTITLE1=I Need You Back
TTITLE2=Give Me A Chance
TTITLE3=Friend Of Mine
TTITLE4=A Friend
TTITLE5=Can Find No Reason
TTITLE6=A Smile In Your Heart
TTITLE7=You
TTITLE8=Gotta Let You Know
TTITLE9=I'll Always Stay In Love This Way
TTITLE10=Special Memory
TTITLE11=Let The Pain Remain
TTITLE12=Can't We Start Over Again
TTITLE13=Hold On
TTITLE14=Maybe
TTITLE15=Everyday
EXTD=
EXTT0=
EXTT1=
EXTT2=
EXTT3=
EXTT4=
EXTT5=
EXTT6=
EXTT7=
EXTT8=
EXTT9=
EXTT10=
EXTT11=
EXTT12=
EXTT13=
EXTT14=
EXTT15=
PLAYORDER=
